<svg width="450" height="520" viewBox="0 0 450 520" fill="none" xmlns="http://www.w3.org/2000/svg">
	<path
		d="M282.278 104.99C295.414 73.2776 280.355 36.9208 248.643 23.7849C216.93 10.6489 180.573 25.708 167.438 57.4204C154.302 89.1328 169.361 125.49 201.073 138.626C232.785 151.762 269.142 136.702 282.278 104.99Z"
		fill="#FB6977" />
	<path
		d="M224.844 394.771C190.524 394.771 162.694 422.591 162.694 456.921C162.694 491.241 190.514 519.071 224.844 519.071C259.164 519.071 286.994 491.251 286.994 456.921C286.994 422.591 259.164 394.771 224.844 394.771Z"
		fill="#FB6977" />
	<path
		d="M93.2342 121.311C63.5142 104.151 25.5042 114.331 8.34422 144.061C-8.81578 173.791 1.36422 211.791 31.0942 228.951C60.8142 246.111 98.8242 235.931 115.984 206.201C133.144 176.481 122.954 138.481 93.2342 121.311Z"
		fill="#FB6977" />
	<path
		d="M418.604 309.171C388.884 292.011 350.874 302.191 333.714 331.921C316.554 361.651 326.734 399.651 356.464 416.811C386.184 433.971 424.194 423.791 441.354 394.061C458.514 364.341 448.324 326.331 418.604 309.171Z"
		fill="#FB6977" />
	<path
		d="M31.0842 309.171C1.36423 326.331 -8.82577 364.341 8.33423 394.061C25.4942 423.781 63.5042 433.971 93.2242 416.811C122.944 399.651 133.134 361.641 115.974 331.921C98.8142 302.191 60.8042 292.001 31.0842 309.171Z"
		fill="#FB6977" />
	<path
		d="M418.604 228.951C448.324 211.791 458.514 173.781 441.354 144.061C424.194 114.341 386.184 104.151 356.464 121.311C326.744 138.471 316.554 176.481 333.714 206.201C350.874 235.931 388.874 246.121 418.604 228.951Z"
		fill="#FB6977" />
	<path
		d="M282.28 292.845C295.416 261.133 280.356 224.776 248.644 211.64C216.932 198.504 180.575 213.563 167.439 245.275C154.303 276.988 169.362 313.344 201.074 326.48C232.787 339.616 269.144 324.557 282.28 292.845Z"
		fill="#FB6977" />
</svg>