<?xml version="1.0" encoding="utf-8"?>
<!-- Generator: Adobe Illustrator 27.5.0, SVG Export Plug-In . SVG Version: 6.00 Build 0)  -->
<svg version="1.1" id="Capa_1" xmlns="http://www.w3.org/2000/svg" xmlns:xlink="http://www.w3.org/1999/xlink" x="0px" y="0px"
	 viewBox="0 0 800 800" style="enable-background:new 0 0 800 800;" xml:space="preserve">
<style type="text/css">
	.st0{fill:#FB6977;}
</style>
<path class="st0" d="M610.54,632.89l-33.96-67.99c-4.56-9.13-13.89-14.9-24.09-14.9h-81.1c-11.8,0-21.37-9.56-21.38-21.36V171.37
	c0-11.8-9.57-21.37-21.37-21.37h-78.65H247.51c-10.2,0-19.53,5.77-24.09,14.9l-33.96,67.99c-3.93,7.86,1.79,17.11,10.58,17.11h83.35
	c10.2,0,19.53-5.77,24.09-14.9l28.35-56.75l0,0.03c1.25-2.4,3.76-4.04,6.66-4.04c4.15,0,7.51,3.36,7.51,7.51v346.77
	c0,11.81-9.57,21.38-21.38,21.38h-81.1c-10.2,0-19.53,5.77-24.09,14.9l-33.96,67.99c-3.93,7.87,1.79,17.11,10.58,17.11h83.35
	c10.2,0,19.53-5.77,24.09-14.9l34.89-69.85l-3.69,7.4c6.95-13.9,21.14-22.67,36.68-22.67h49.29c15.54,0,29.73,8.77,36.68,22.67
	l-3.69-7.4l34.89,69.85c4.56,9.13,13.89,14.9,24.09,14.9h83.35C608.75,650,614.47,640.75,610.54,632.89z"/>
</svg>
