<?xml version="1.0" encoding="utf-8"?>
<!-- Generator: Adobe Illustrator 27.5.0, SVG Export Plug-In . SVG Version: 6.00 Build 0)  -->
<svg version="1.1" id="Capa_1" xmlns="http://www.w3.org/2000/svg" xmlns:xlink="http://www.w3.org/1999/xlink" x="0px" y="0px"
	 viewBox="0 0 800 800" style="enable-background:new 0 0 800 800;" xml:space="preserve">
<style type="text/css">
	.st0{fill:#FB6977;}
</style>
<g>
	<path class="st0" d="M498.89,329.17l-76.53,153.15c-4.16,8.32-12.66,13.58-21.96,13.58h-46.78v0c-9.3,0-17.81,5.26-21.96,13.58
		l0-0.01l-63.43,126.95c-4.16,8.32-12.66,13.58-21.96,13.58h-75.99c-8.02,0-13.23-8.44-9.65-15.61l76.53-153.15
		c4.16-8.32,12.66-13.58,21.96-13.58h46.77v0c9.3,0,17.81-5.26,21.96-13.58l0,0.01l63.44-126.95c4.16-8.32,12.66-13.58,21.96-13.58
		h75.99C497.26,313.56,502.47,322,498.89,329.17z"/>
	<path class="st0" d="M639.39,297.96l-67.15-134.38c-4.16-8.32-12.66-13.58-21.96-13.58H344.67c-9.3,0-17.81,5.26-21.97,13.58
		l-67.15,134.38c-3.58,7.17,1.63,15.6,9.65,15.6h75.99c9.3,0,17.81-5.26,21.96-13.58L422.12,182c10.44-20.9,40.27-20.9,50.71,0
		l58.96,117.99c4.16,8.32,12.66,13.58,21.96,13.58h75.99C637.76,313.57,642.97,305.13,639.39,297.96z"/>
</g>
</svg>
