<?xml version="1.0" encoding="utf-8"?>
<!-- Generator: Adobe Illustrator 27.5.0, SVG Export Plug-In . SVG Version: 6.00 Build 0)  -->
<svg version="1.1" id="Capa_1" xmlns="http://www.w3.org/2000/svg" xmlns:xlink="http://www.w3.org/1999/xlink" x="0px" y="0px"
	 viewBox="0 0 800 800" style="enable-background:new 0 0 800 800;" xml:space="preserve">
<style type="text/css">
	.st0{fill:#FB6977;}
</style>
<g>
	<path class="st0" d="M751.02,297.96l-67.15-134.38c-4.16-8.32-12.66-13.58-21.96-13.58H456.3c-9.3,0-17.81,5.26-21.97,13.58
		l-67.15,134.38c-3.58,7.17,1.63,15.6,9.65,15.6h75.99c9.3,0,17.81-5.26,21.96-13.58L533.75,182c10.44-20.9,40.27-20.9,50.71,0
		l58.96,117.99c4.16,8.32,12.66,13.58,21.96,13.58h75.99C749.39,313.57,754.6,305.13,751.02,297.96z"/>
	<path class="st0" d="M429.74,355.25h-76c-9.3,0-17.81,5.26-21.97,13.58L199.3,634.39c-3.59,7.17,1.63,15.61,9.65,15.61h76
		c9.3,0,17.81-5.26,21.97-13.58l132.48-265.56C442.97,363.69,437.76,355.25,429.74,355.25z"/>
	<path class="st0" d="M237.85,438.62h-76c-9.3,0-17.81,5.26-21.97,13.58l-90.9,182.19C45.4,641.56,50.61,650,58.63,650h76
		c9.3,0,17.81-5.26,21.97-13.58l90.9-182.19C251.08,447.06,245.86,438.62,237.85,438.62z"/>
	<path class="st0" d="M600.87,313.56h-76c-9.3,0-17.81,5.26-21.97,13.58l-153.3,307.25c-3.59,7.17,1.63,15.61,9.65,15.61h76
		c9.3,0,17.81-5.26,21.97-13.58l153.3-307.25C614.1,322,608.89,313.56,600.87,313.56z"/>
</g>
</svg>
