<?xml version="1.0" encoding="utf-8"?>
<!-- Generator: Adobe Illustrator 27.5.0, SVG Export Plug-In . SVG Version: 6.00 Build 0)  -->
<svg version="1.1" id="Capa_1" xmlns="http://www.w3.org/2000/svg" xmlns:xlink="http://www.w3.org/1999/xlink" x="0px" y="0px"
	 viewBox="0 0 800 800" style="enable-background:new 0 0 800 800;" xml:space="preserve">
<style type="text/css">
	.st0{fill:#FB6977;}
</style>
<g>
	<path class="st0" d="M565.48,150h-83.62c-10.24,0-19.6,5.78-24.17,14.94L223.91,632.82c-3.95,7.89,1.79,17.18,10.61,17.18h83.62
		c10.24,0,19.59-5.79,24.17-14.94l233.78-467.88C580.04,159.28,574.3,150,565.48,150z"/>
	<path class="st0" d="M308,384.92l108.84-217.75c3.95-7.89-1.79-17.17-10.61-17.17H322.6c-10.24,0-19.6,5.78-24.17,14.94
		L189.59,382.69c-3.95,7.89,1.79,17.17,10.61,17.17h83.62C294.06,399.87,303.42,394.08,308,384.92z"/>
	<path class="st0" d="M599.8,399.87h-83.62c-10.24,0-19.6,5.78-24.17,14.94L383.16,632.56c-3.95,7.89,1.79,17.18,10.61,17.18h83.62
		c10.24,0,19.59-5.78,24.17-14.94l108.84-217.75C614.36,409.15,608.62,399.87,599.8,399.87z"/>
</g>
</svg>
