<?xml version="1.0" encoding="utf-8"?>
<!-- Generator: Adobe Illustrator 27.5.0, SVG Export Plug-In . SVG Version: 6.00 Build 0)  -->
<svg version="1.1" id="Capa_1" xmlns="http://www.w3.org/2000/svg" xmlns:xlink="http://www.w3.org/1999/xlink" x="0px" y="0px"
	 viewBox="0 0 800 800" style="enable-background:new 0 0 800 800;" xml:space="preserve">
<style type="text/css">
	.st0{fill:#FB6977;}
</style>
<path class="st0" d="M553.84,150L553.84,150c-53.11,0-96.16,43.06-96.16,96.16v64.99c0,17.19-13.94,31.18-31.13,31.18H315.36
	c-12.61,0-24.13,7.12-29.77,18.4L151.56,628.85c-4.86,9.72,2.21,21.15,13.07,21.15h118.68c12.61,0,24.13-7.12,29.77-18.4
	l131.24-262.54l0,0c8.21-16.42,24.94-26.73,43.3-26.73h66.23c53.11,0,96.16-43.05,96.16-96.16C650,193.06,606.95,150,553.84,150z"/>
</svg>
