<svg width="14" height="14" viewBox="0 0 210 208" fill="none" xmlns="http://www.w3.org/2000/svg">
	<path
		d="M0.330145 4.54817L22.7728 49.6475C24.0156 52.0674 26.5011 53.6074 29.2059 53.6074H42.9493C45.6541 53.6074 48.1396 55.1474 49.3823 57.5673L68.0236 94.9667C69.2664 97.3867 71.7519 99 74.4567 99H96.8262C99.1655 99 100.701 96.5067 99.6773 94.3801L77.2346 49.2808C75.9919 46.8608 73.5063 45.3209 70.8015 45.3209H57.0581C54.3533 45.3209 51.8678 43.7809 50.6251 41.3609L31.9838 3.96152C30.741 1.54156 28.2555 0.00158006 25.5507 0.00158006H3.25427C0.768764 -0.0717521 -0.693298 2.42154 0.330145 4.54817Z"
		fill="#FB6977" />
	<path
		d="M99.6385 113.61L77.1865 158.61C75.9432 161.024 73.4567 162.634 70.7507 162.634H57.0016C54.2956 162.634 51.8091 164.171 50.5658 166.659L31.9167 203.976C30.6734 206.39 28.1869 208 25.4809 208H3.1751C0.834821 208 -0.700988 205.512 0.322884 203.39L22.775 158.39C24.0182 155.976 26.5048 154.366 29.2107 154.366H42.9599C45.6658 154.366 48.1524 152.829 49.3956 150.341L68.0448 113.024C69.288 110.61 71.7746 109 74.4805 109H96.8595C99.1997 109 100.736 111.488 99.6385 113.61Z"
		fill="#FB6977" />
	<path
		d="M209.677 4.54817L187.216 49.6475C185.973 52.0674 183.485 53.6074 180.778 53.6074H167.024C164.317 53.6074 161.756 55.1474 160.585 57.5673L141.929 94.9667C140.685 97.3867 138.198 99 135.491 99H113.176C110.835 99 109.299 96.5067 110.323 94.3801L132.784 49.2808C134.027 46.8608 136.515 45.3209 139.222 45.3209H152.976C155.683 45.3209 158.244 43.7809 159.415 41.3609L178.071 3.96152C179.315 1.54156 181.802 0.00158006 184.509 0.00158006H206.824C209.165 -0.0717521 210.701 2.42154 209.677 4.54817Z"
		fill="#FB6977" />
	<path
		d="M110.322 113.61L132.767 158.61C134.009 161.024 136.495 162.634 139.2 162.634H152.945C155.65 162.634 158.208 164.171 159.378 166.659L178.021 203.976C179.264 206.39 181.75 208 184.455 208H206.826C209.165 208 210.701 205.512 209.677 203.39L187.233 158.39C185.99 155.976 183.504 154.366 180.799 154.366H167.055C164.35 154.366 161.791 152.829 160.621 150.341L141.978 113.024C140.735 110.61 138.25 109 135.545 109H113.246C110.834 109 109.299 111.488 110.322 113.61Z"
		fill="#FB6977" />
</svg>