<?xml version="1.0" encoding="utf-8"?>
<!-- Generator: Adobe Illustrator 27.5.0, SVG Export Plug-In . SVG Version: 6.00 Build 0)  -->
<svg version="1.1" id="Capa_1" xmlns="http://www.w3.org/2000/svg" xmlns:xlink="http://www.w3.org/1999/xlink" x="0px" y="0px"
	 viewBox="0 0 800 800" style="enable-background:new 0 0 800 800;" xml:space="preserve">
<style type="text/css">
	.st0{fill:#FB6977;}
</style>
<g>
	<path class="st0" d="M450.01,400c0-27.62-22.39-50.01-50.01-50.01c-27.62,0-50.01,22.39-50.01,50.01s22.39,50.01,50.01,50.01
		C427.62,450.01,450.01,427.62,450.01,400z"/>
	<path class="st0" d="M209.58,329.19h57.28c11.8,0,21.37-9.57,21.37-21.37v-47.37c0-5.76,4.67-10.43,10.43-10.43h47.37
		c11.8,0,21.37-9.57,21.37-21.37v-57.28c0-11.8-9.57-21.37-21.37-21.37H209.58h0c-4.43,0-8.54,1.34-11.95,3.65
		c-5.68,3.84-9.42,10.34-9.42,17.72v136.45C188.21,319.62,197.77,329.19,209.58,329.19z"/>
	<path class="st0" d="M602.37,153.65c-3.41-2.3-7.52-3.65-11.95-3.65h0H453.98c-11.8,0-21.37,9.57-21.37,21.37v57.28
		c0,11.8,9.57,21.37,21.37,21.37h47.37c5.76,0,10.43,4.67,10.43,10.43v47.37c0,11.8,9.57,21.37,21.37,21.37h57.28
		c11.8,0,21.37-9.57,21.37-21.37V171.37C611.79,163.99,608.06,157.49,602.37,153.65z"/>
	<path class="st0" d="M590.42,470.81h-57.28c-11.8,0-21.37,9.57-21.37,21.37v47.37c0,5.76-4.67,10.43-10.43,10.43h-47.37
		c-11.8,0-21.37,9.57-21.37,21.37v57.28c0,11.8,9.57,21.37,21.37,21.37h136.45h0c4.43,0,8.54-1.34,11.95-3.65
		c5.68-3.84,9.42-10.34,9.42-17.72V492.19C611.79,480.38,602.22,470.81,590.42,470.81z"/>
	<path class="st0" d="M346.02,549.98h-47.37c-5.76,0-10.43-4.67-10.43-10.43v-47.37c0-11.8-9.57-21.37-21.37-21.37h-57.28
		c-11.8,0-21.37,9.57-21.37,21.37v136.45c0,7.38,3.74,13.88,9.42,17.72c3.41,2.3,7.52,3.65,11.95,3.65h0h136.45
		c11.8,0,21.37-9.57,21.37-21.37v-57.28C367.39,559.55,357.83,549.98,346.02,549.98z"/>
</g>
</svg>
