<?xml version="1.0" encoding="utf-8"?>
<!-- Generator: Adobe Illustrator 27.5.0, SVG Export Plug-In . SVG Version: 6.00 Build 0)  -->
<svg version="1.1" id="Capa_1" xmlns="http://www.w3.org/2000/svg" xmlns:xlink="http://www.w3.org/1999/xlink" x="0px" y="0px"
	 viewBox="0 0 800 800" style="enable-background:new 0 0 800 800;" xml:space="preserve">
<style type="text/css">
	.st0{fill:#FB6977;}
</style>
<path class="st0" d="M564.58,150H235.42c-26.07,0-47.21,21.14-47.21,47.21v405.58c0,26.07,21.14,47.21,47.21,47.21h329.17
	c26.07,0,47.21-21.14,47.21-47.21V197.21C611.79,171.14,590.66,150,564.58,150z M288.37,208.45c23.38,0,42.4,19.02,42.4,42.39
	s-19.02,42.4-42.4,42.4s-42.4-19.02-42.4-42.4S264.99,208.45,288.37,208.45z M245.97,376.66c0-10.28,8.37-18.64,18.65-18.64h146.68
	c10.28,0,18.65,8.36,18.65,18.64v47.5c0,10.28-8.37,18.65-18.65,18.65H264.62c-10.28,0-18.65-8.37-18.65-18.65V376.66z
	 M288.37,592.38c-23.38,0-42.4-19.02-42.4-42.39s19.02-42.39,42.4-42.39s42.4,19.02,42.4,42.39S311.74,592.38,288.37,592.38z
	 M554.03,573.73c0,10.28-8.36,18.64-18.64,18.64H388.7c-10.28,0-18.65-8.36-18.65-18.64v-47.5c0-10.28,8.37-18.64,18.65-18.64
	h146.68c10.28,0,18.64,8.36,18.64,18.64V573.73z M511.64,442.81c-23.38,0-42.4-19.02-42.4-42.4s19.02-42.39,42.4-42.39
	c23.38,0,42.39,19.02,42.39,42.39S535.01,442.81,511.64,442.81z M554.03,274.59c0,10.28-8.37,18.65-18.65,18.65H388.7
	c-10.28,0-18.65-8.37-18.65-18.65V227.1c0-10.28,8.37-18.65,18.65-18.65h146.68c10.28,0,18.64,8.36,18.64,18.64V274.59z"/>
</svg>
