<?xml version="1.0" encoding="utf-8"?>
<!-- Generator: Adobe Illustrator 27.5.0, SVG Export Plug-In . SVG Version: 6.00 Build 0)  -->
<svg version="1.1" id="Capa_1" xmlns="http://www.w3.org/2000/svg" xmlns:xlink="http://www.w3.org/1999/xlink" x="0px" y="0px"
	 viewBox="0 0 800 800" style="enable-background:new 0 0 800 800;" xml:space="preserve">
<style type="text/css">
	.st0{fill:#FB6977;}
</style>
<g>
	<path class="st0" d="M590.43,188.21h-57.29c-11.8,0-21.36,9.56-21.36,21.36v280.84c0,11.8-9.56,21.36-21.36,21.36H309.58
		c-11.8,0-21.36-9.56-21.36-21.36V209.57c0-11.8-9.56-21.36-21.36-21.36h-57.29c-11.8,0-21.36,9.56-21.36,21.36v283.49
		c0,11.98,4.76,23.47,13.23,31.95l73.55,73.55c8.47,8.47,19.96,13.23,31.95,13.23h186.13c11.98,0,23.47-4.76,31.95-13.23
		l73.55-73.55c8.47-8.47,13.23-19.96,13.23-31.95V209.57C611.79,197.77,602.23,188.21,590.43,188.21z"/>
	<path class="st0" d="M349.33,472.03h101.34c11.8,0,21.36-9.56,21.36-21.36v-241.1c0-11.8-9.56-21.36-21.36-21.36H349.33
		c-11.8,0-21.36,9.56-21.36,21.36v241.1C327.97,462.47,337.53,472.03,349.33,472.03z"/>
</g>
</svg>
