<?xml version="1.0" encoding="utf-8"?>
<!-- Generator: Adobe Illustrator 27.5.0, SVG Export Plug-In . SVG Version: 6.00 Build 0)  -->
<svg version="1.1" id="Capa_1" xmlns="http://www.w3.org/2000/svg" xmlns:xlink="http://www.w3.org/1999/xlink" x="0px" y="0px"
	 viewBox="0 0 800 800" style="enable-background:new 0 0 800 800;" xml:space="preserve">
<style type="text/css">
	.st0{fill:#FB6977;}
</style>
<path class="st0" d="M590.85,267.67H489.03c-7.79,0-14.92-4.14-18.4-10.7l-50.35-94.78c-8.63-16.25-31.92-16.25-40.56,0
	l-50.35,94.78c-3.48,6.55-10.61,10.7-18.4,10.7H209.15c-11.56,0-20.94,8.82-20.94,19.69v195.67c0,11.77,5.58,22.84,15.04,29.84
	l179.68,131.49c10.14,7.51,24,7.51,34.14,0l179.68-131.49c9.46-7,15.04-18.07,15.04-29.84V287.37
	C611.79,276.49,602.42,267.67,590.85,267.67z M400,474.88c-27.62,0-50.01-22.39-50.01-50.01c0-27.62,22.39-50.01,50.01-50.01
	c27.62,0,50.01,22.39,50.01,50.01C450.01,452.49,427.62,474.88,400,474.88z"/>
</svg>
