<?xml version="1.0" encoding="utf-8"?>
<!-- Generator: Adobe Illustrator 27.5.0, SVG Export Plug-In . SVG Version: 6.00 Build 0)  -->
<svg version="1.1" id="Capa_1" xmlns="http://www.w3.org/2000/svg" xmlns:xlink="http://www.w3.org/1999/xlink" x="0px" y="0px"
	 viewBox="0 0 800 800" style="enable-background:new 0 0 800 800;" xml:space="preserve">
<style type="text/css">
	.st0{fill:#FB6977;}
</style>
<g>
	<path class="st0" d="M200.05,329.43h83.36c10.2,0,19.53-5.77,24.1-14.9l64.68-129.43c11.46-22.93,44.18-22.93,55.63,0l64.68,129.43
		c4.56,9.13,13.89,14.9,24.1,14.9h83.36c8.79,0,14.51-9.25,10.58-17.12L536.87,164.9c-4.56-9.13-13.89-14.9-24.1-14.9H287.22
		c-10.2,0-19.53,5.77-24.1,14.9l-73.66,147.42C185.54,320.18,191.26,329.43,200.05,329.43z"/>
	<path class="st0" d="M599.95,470.57h-83.36c-10.2,0-19.53,5.77-24.1,14.9L427.82,614.9c-11.46,22.93-44.18,22.93-55.63,0
		l-64.68-129.43c-4.56-9.13-13.89-14.9-24.1-14.9h-83.36c-8.79,0-14.51,9.25-10.58,17.12l73.66,147.42
		c4.56,9.13,13.89,14.9,24.1,14.9h225.55c10.2,0,19.53-5.77,24.1-14.9l73.66-147.42C614.46,479.82,608.74,470.57,599.95,470.57z"/>
	<circle class="st0" cx="400" cy="400" r="50.01"/>
</g>
</svg>
