<?xml version="1.0" encoding="utf-8"?>
<!-- Generator: Adobe Illustrator 27.5.0, SVG Export Plug-In . SVG Version: 6.00 Build 0)  -->
<svg version="1.1" id="Capa_1" xmlns="http://www.w3.org/2000/svg" xmlns:xlink="http://www.w3.org/1999/xlink" x="0px" y="0px"
	 viewBox="0 0 800 800" style="enable-background:new 0 0 800 800;" xml:space="preserve">
<style type="text/css">
	.st0{fill:#FB6977;}
</style>
<g>
	<path class="st0" d="M310.88,331.89h56.53c5.13,0,9.87-2.74,12.43-7.18l12.55-21.75c1.69-2.93,4.65-4.39,7.6-4.39
		s5.91,1.46,7.6,4.39l12.55,21.75c2.57,4.44,7.3,7.18,12.43,7.18h56.53c4.88,0,7.93-5.28,5.49-9.51l-52.6-91.1
		c-2.54-4.41-7.25-7.12-12.34-7.12h-59.35c-5.09,0-9.79,2.72-12.34,7.12l-52.6,91.1C302.95,326.61,306,331.89,310.88,331.89z"/>
	<path class="st0" d="M338.84,493.9c-2.57-4.44-7.3-7.18-12.43-7.18H301.3c-3.38,0-6.13-1.83-7.6-4.39c-1.48-2.56-1.69-5.85,0-8.78
		l12.55-21.75c2.57-4.44,2.57-9.91,0-14.36l-28.26-48.95c-2.44-4.23-8.54-4.23-10.98,0l-52.6,91.1c-2.54,4.41-2.54,9.84,0,14.24
		l29.67,51.4c2.54,4.41,7.25,7.12,12.33,7.12l105.2,0c4.88,0,7.93-5.28,5.49-9.51L338.84,493.9z"/>
	<path class="st0" d="M555.92,545.24l29.67-51.4c2.54-4.41,2.54-9.84,0-14.24l-52.6-91.11c-2.44-4.23-8.54-4.23-10.98,0
		l-28.26,48.95c-2.57,4.44-2.57,9.91,0,14.36l12.55,21.75c1.69,2.93,1.48,6.22,0,8.78c-1.48,2.56-4.22,4.39-7.6,4.39h-25.11
		c-5.13,0-9.87,2.74-12.43,7.18l-28.26,48.95c-2.44,4.23,0.61,9.51,5.49,9.51l105.2,0C548.67,552.36,553.37,549.64,555.92,545.24z"
		/>
	<path class="st0" d="M452.68,443.96c5.43,0,9.82-4.4,9.82-9.82v-21.03c0-34.51-27.99-62.42-62.5-62.43
		c-34.51,0.01-62.5,27.92-62.5,62.43v21.03c0,5.43,4.4,9.82,9.82,9.82c8.94,0,17.12,5.05,21.12,13.05l6.58,22.36
		c1.66,3.33,5.07,5.43,8.79,5.43h32.38c3.72,0,7.12-2.1,8.79-5.43l6.58-22.36C435.56,449.01,443.73,443.96,452.68,443.96z
		 M375.81,430.17c-7.21,0-13.06-5.85-13.06-13.06c0-7.21,5.85-13.06,13.06-13.06s13.06,5.85,13.06,13.06
		C388.87,424.32,383.02,430.17,375.81,430.17z M424.19,430.17c-7.21,0-13.06-5.85-13.06-13.06c0-7.21,5.85-13.06,13.06-13.06
		c7.21,0,13.06,5.85,13.06,13.06C437.25,424.32,431.4,430.17,424.19,430.17z"/>
	<path class="st0" d="M215.09,204.48c2.99,5.18,7.48,8.02,12.98,8.02h56.4c4.74,0,7.95-5.34,5.7-9.22l-26.15-45.26
		c-2.99-5.18-7.48-8.02-12.98-8.02h-56.39c-4.74,0-7.95,5.34-5.7,9.22L215.09,204.48z"/>
	<path class="st0" d="M515.54,212.5h56.39c5.5,0,9.99-2.85,12.98-8.02l26.15-45.26c2.25-3.88-0.96-9.22-5.7-9.22h-56.39
		c-5.5,0-9.99,2.85-12.98,8.02l-26.15,45.26C507.59,207.16,510.8,212.5,515.54,212.5z"/>
	<path class="st0" d="M584.91,595.52c-2.99-5.18-7.48-8.02-12.98-8.02h-56.39c-4.74,0-7.95,5.34-5.7,9.22l26.15,45.26
		c2.99,5.18,7.48,8.02,12.98,8.02h56.39c4.74,0,7.95-5.34,5.7-9.22L584.91,595.52z"/>
	<path class="st0" d="M284.46,587.5h-56.4c-5.5,0-9.99,2.85-12.98,8.02l-26.15,45.26c-2.25,3.88,0.96,9.22,5.7,9.22h56.39
		c5.5,0,9.99-2.85,12.98-8.02l26.15-45.26C292.41,592.84,289.2,587.5,284.46,587.5z"/>
</g>
</svg>
