<?xml version="1.0" encoding="utf-8"?>
<!-- Generator: Adobe Illustrator 27.5.0, SVG Export Plug-In . SVG Version: 6.00 Build 0)  -->
<svg version="1.1" id="Capa_1" xmlns="http://www.w3.org/2000/svg" xmlns:xlink="http://www.w3.org/1999/xlink" x="0px" y="0px"
	 viewBox="0 0 800 800" style="enable-background:new 0 0 800 800;" xml:space="preserve">
<style type="text/css">
	.st0{fill:#FB6977;}
</style>
<g>
	<path class="st0" d="M400,239.73c24.78,0,44.87-20.09,44.87-44.87c0-24.78-20.09-44.87-44.87-44.87
		c-24.78,0-44.87,20.09-44.87,44.87C355.13,219.65,375.22,239.73,400,239.73z"/>
	<path class="st0" d="M536.87,485.47c-4.56-9.13-13.89-14.9-24.1-14.9H287.22c-10.2,0-19.53,5.77-24.1,14.9l-73.66,147.42
		c-3.93,7.87,1.79,17.12,10.58,17.12h83.36c10.2,0,19.53-5.77,24.1-14.9l22.47-44.97l42.2-84.46c11.46-22.93,44.18-22.93,55.63,0
		l42.2,84.46l22.47,44.97c4.56,9.13,13.89,14.9,24.1,14.9h83.36c8.79,0,14.51-9.25,10.58-17.12L536.87,485.47z"/>
	<path class="st0" d="M200.05,444.87h83.36c10.2,0,19.53-5.77,24.1-14.9L329.98,385l42.2-84.46c11.46-22.93,44.18-22.93,55.63,0
		l42.2,84.46l22.47,44.97c4.56,9.13,13.89,14.9,24.1,14.9h83.36c8.79,0,14.51-9.25,10.58-17.12l-73.66-147.42
		c-4.56-9.13-13.89-14.9-24.1-14.9H287.22c-10.2,0-19.53,5.77-24.1,14.9l-73.66,147.42C185.54,435.62,191.26,444.87,200.05,444.87z"
		/>
</g>
</svg>
