<?xml version="1.0" encoding="utf-8"?>
<!-- Generator: Adobe Illustrator 27.5.0, SVG Export Plug-In . SVG Version: 6.00 Build 0)  -->
<svg version="1.1" id="Capa_1" xmlns="http://www.w3.org/2000/svg" xmlns:xlink="http://www.w3.org/1999/xlink" x="0px" y="0px"
	 viewBox="0 0 800 800" style="enable-background:new 0 0 800 800;" xml:space="preserve">
<style type="text/css">
	.st0{fill:#FB6977;}
</style>
<path class="st0" d="M590.42,400H421.38c-9.82,0-16.21-10.34-11.82-19.12l1.13-2.25h0l104.73-209.51c4.39-8.79-2-19.12-11.82-19.12
	h-28.91c-6.48,0-12.81,1.96-18.15,5.63L201.56,330.6c-8.36,5.74-13.35,15.22-13.35,25.36v22.67c0,11.8,9.57,21.37,21.37,21.37
	h169.04c9.82,0,16.21,10.34,11.82,19.12l-0.52,1.05l-0.1,0.2L284.59,630.88c-4.39,8.78,2,19.12,11.82,19.12h28.91
	c6.48,0,12.81-1.96,18.15-5.63L598.44,469.4c8.36-5.74,13.35-15.22,13.35-25.36v-22.67C611.79,409.57,602.22,400,590.42,400z"/>
</svg>
