<?xml version="1.0" encoding="utf-8"?>
<!-- Generator: Adobe Illustrator 27.5.0, SVG Export Plug-In . SVG Version: 6.00 Build 0)  -->
<svg version="1.1" id="Capa_1" xmlns="http://www.w3.org/2000/svg" xmlns:xlink="http://www.w3.org/1999/xlink" x="0px" y="0px"
	 viewBox="0 0 800 800" style="enable-background:new 0 0 800 800;" xml:space="preserve">
<style type="text/css">
	.st0{fill:#FB6977;}
</style>
<g>
	<path class="st0" d="M638.16,303.38h-60.94c-10.2,0-19.53,7.23-24.09,18.68l-34.77,87.27l3.57-8.97
		c-6.93,17.38-21.06,28.36-36.54,28.42H314.61c-15.49-0.06-29.61-11.04-36.54-28.42l3.93,9.87l-35.12-88.17
		c-4.56-11.45-13.89-18.68-24.09-18.68h-60.94c-8.79,0-14.51,11.6-10.58,21.46l33.96,85.25c4.56,11.45,13.89,18.68,24.09,18.68
		h58.69c11.8,0,21.37,12,21.38,26.8v173.08c0,11.79,9.55,21.34,21.34,21.34h178.55c11.79,0,21.34-9.55,21.34-21.34V455.58
		c0-14.8,9.57-26.8,21.38-26.8h58.69c10.2,0,19.53-7.23,24.09-18.68l33.96-85.25C652.67,314.98,646.95,303.38,638.16,303.38z"/>
	<path class="st0" d="M315.86,337.57c20.01,11.55,45.59,4.7,57.15-15.31c11.55-20.01,4.7-45.59-15.31-57.14
		c-20.01-11.55-45.59-4.7-57.15,15.31C288.99,300.43,295.85,326.02,315.86,337.57z"/>
	<path class="st0" d="M427,322.26c11.55,20.01,37.14,26.87,57.15,15.31c20.01-11.55,26.86-37.14,15.31-57.15
		c-11.55-20.01-37.14-26.86-57.14-15.31C422.3,276.66,415.45,302.25,427,322.26z"/>
	<circle class="st0" cx="400" cy="191.83" r="41.83"/>
</g>
</svg>
