<?xml version="1.0" encoding="utf-8"?>
<!-- Generator: Adobe Illustrator 27.5.0, SVG Export Plug-In . SVG Version: 6.00 Build 0)  -->
<svg version="1.1" id="Capa_1" xmlns="http://www.w3.org/2000/svg" xmlns:xlink="http://www.w3.org/1999/xlink" x="0px" y="0px"
	 viewBox="0 0 800 800" style="enable-background:new 0 0 800 800;" xml:space="preserve">
<style type="text/css">
	.st0{fill:#FB6977;}
</style>
<g>
	<path class="st0" d="M428.64,329.43h-57.28c-11.8,0-21.37,9.57-21.37,21.37v277.83c0,11.8,9.57,21.37,21.37,21.37h57.28
		c11.8,0,21.37-9.57,21.37-21.37V350.8C450.01,339,440.44,329.43,428.64,329.43z"/>
	<path class="st0" d="M610.53,312.31L536.87,164.9c-4.56-9.13-13.89-14.9-24.1-14.9H287.22c-10.2,0-19.53,5.77-24.1,14.9
		l-73.66,147.42c-3.93,7.87,1.79,17.12,10.58,17.12h83.36c10.2,0,19.53-5.77,24.1-14.9l64.68-129.43
		c11.46-22.93,44.18-22.93,55.63,0l64.68,129.43c4.56,9.13,13.89,14.9,24.1,14.9h83.36C608.74,329.43,614.46,320.18,610.53,312.31z"
		/>
</g>
</svg>
