<?xml version="1.0" encoding="utf-8"?>
<!-- Generator: Adobe Illustrator 27.5.0, SVG Export Plug-In . SVG Version: 6.00 Build 0)  -->
<svg version="1.1" id="Capa_1" xmlns="http://www.w3.org/2000/svg" xmlns:xlink="http://www.w3.org/1999/xlink" x="0px" y="0px"
	 viewBox="0 0 800 800" style="enable-background:new 0 0 800 800;" xml:space="preserve">
<style type="text/css">
	.st0{fill:#FB6977;}
</style>
<g>
	<path class="st0" d="M584.46,250H536.9c-15.44-0.09-29.52-8.83-36.43-22.66l3.08,6.17l-34.28-68.62
		c-4.56-9.13-13.89-14.9-24.09-14.9h-90.34c-10.2,0-19.53,5.77-24.09,14.9l-34.95,69.98l3.76-7.53
		c-6.91,13.83-20.99,22.56-36.43,22.66h-47.57c-15.09,0-27.33,12.24-27.33,27.33v245.34c0,15.09,12.23,27.33,27.33,27.33h47.57
		c15.44,0.09,29.52,8.83,36.43,22.66l-4.18-8.37l35.37,70.82c4.56,9.13,13.89,14.9,24.09,14.9h90.34c10.2,0,19.53-5.77,24.09-14.9
		l34.69-69.44l-3.49,7c6.91-13.83,20.99-22.57,36.43-22.66h47.57c15.09,0,27.33-12.24,27.33-27.33V277.33
		C611.79,262.24,599.56,250,584.46,250z M511.78,528.63c0,11.8-9.57,21.37-21.38,21.37H309.6c-11.81,0-21.38-9.57-21.38-21.38
		l0,21.36l0,0v-21.36V271.38v-21.36l0,0l0,21.36c0-11.81,9.57-21.38,21.38-21.38h180.8c11.81,0,21.37,9.57,21.38,21.37V528.63z"/>
	<circle class="st0" cx="400" cy="400" r="50.01"/>
</g>
</svg>
